<svg width="41" height="41" viewBox="0 0 41 41" fill="none" xmlns="http://www.w3.org/2000/svg">
<ellipse cx="20.1512" cy="20.7167" rx="20" ry="20.0167" fill="#95E673"/>
<path d="M30.5774 17.7143C29.7332 17.7108 28.9259 17.876 28.183 18.1792L24.1777 11.3292C24.0666 11.1393 23.9118 10.9826 23.7278 10.874C23.5438 10.7654 23.3368 10.7084 23.1262 10.7084H19.8262C19.3706 10.7084 19.0012 11.1004 19.0012 11.5841V12.4598C19.0012 12.9435 19.3706 13.3356 19.8262 13.3356H22.4378L23.2059 14.6492H17.3513V13.7734C17.3513 13.2897 16.9819 12.8977 16.5263 12.8977H12.0167C11.3236 12.8977 10.7391 13.4997 10.7515 14.2352C10.7635 14.9491 11.3123 15.5249 11.9888 15.5249H14.5012L12.9844 18.1258C12.2917 17.8614 11.5456 17.7162 10.7676 17.7142C7.14664 17.7049 4.17241 20.8347 4.15127 24.6783C4.12987 28.5667 7.09306 31.7259 10.7513 31.7259C13.8266 31.7259 16.4107 29.4932 17.1433 26.4715H19.8263C20.037 26.4715 20.2443 26.4144 20.4285 26.3055C20.6126 26.1966 20.7675 26.0396 20.8784 25.8494L25.3109 18.249L26.0811 19.5662C24.7686 20.8496 23.9472 22.6904 23.9512 24.7351C23.9587 28.5025 26.9366 31.689 30.4857 31.7255C34.1263 31.763 37.095 28.6713 37.1504 24.8294C37.2064 20.9465 34.2358 17.7294 30.5774 17.7143V17.7143ZM13.7805 21.752C14.282 22.3283 14.6402 23.047 14.7932 23.8443H12.5603L13.7805 21.752ZM10.7513 29.0987C8.47674 29.0987 6.62627 27.1345 6.62627 24.7201C6.62627 22.3057 8.47674 20.3414 10.7513 20.3414C11.0539 20.3414 11.3487 20.3771 11.6329 20.4432L9.28658 24.4665C8.77709 25.34 9.36996 26.4715 10.3388 26.4715H14.5308C13.893 28.0164 12.4393 29.0987 10.7513 29.0987ZM19.1369 23.8443H17.3C17.0958 22.1062 16.2917 20.5661 15.1146 19.4643L16.3906 17.2763H22.9672L19.1369 23.8443ZM30.3289 29.0925C28.213 28.974 26.5107 27.1389 26.4294 24.8914C26.3875 23.7354 26.7714 22.6738 27.4263 21.8667L29.7174 25.7848C29.9577 26.1958 30.4663 26.3221 30.8534 26.0671L31.5544 25.6053C31.9415 25.3502 32.0605 24.8103 31.8202 24.3994L29.5273 20.4781C29.8619 20.3872 30.2059 20.3413 30.5513 20.3415C32.8258 20.3415 34.6763 22.3057 34.6763 24.7201C34.6762 27.2127 32.7039 29.2255 30.3289 29.0925V29.0925Z" fill="#111111"/>
</svg>
