<svg width="40" height="40" viewBox="0 0 40 40" fill="none" xmlns="http://www.w3.org/2000/svg">
<circle cx="20" cy="20" r="20" fill="#E3E3E3"/>
<path d="M32.3901 16.375H29.3498L28.5048 14.1C27.6365 11.761 25.5641 10.25 23.2246 10.25H16.7754C14.4364 10.25 12.3635 11.761 11.4946 14.1L10.6496 16.375H7.60988C7.21328 16.375 6.9223 16.7764 7.01879 17.1904L7.32347 18.5029C7.39101 18.7949 7.63476 19 7.91457 19H8.93375C8.25176 19.6415 7.8125 20.5739 7.8125 21.625V24.25C7.8125 25.1316 8.12531 25.9273 8.625 26.543V29.5C8.625 30.4663 9.35269 31.25 10.25 31.25H11.875C12.7723 31.25 13.5 30.4663 13.5 29.5V27.75H26.5V29.5C26.5 30.4663 27.2277 31.25 28.125 31.25H29.75C30.6473 31.25 31.375 30.4663 31.375 29.5V26.543C31.8747 25.9278 32.1875 25.1321 32.1875 24.25V21.625C32.1875 20.5739 31.7482 19.6415 31.0667 19H32.0859C32.3657 19 32.6095 18.7949 32.677 18.5029L32.9817 17.1904C33.0777 16.7764 32.7867 16.375 32.3901 16.375ZM14.5121 15.3999C14.8823 14.4035 15.7785 13.75 16.7754 13.75H23.2246C24.2214 13.75 25.1177 14.4035 25.4879 15.3999L26.5 18.125H13.5L14.5121 15.3999ZM11.875 24.2391C10.9 24.2391 10.25 23.5412 10.25 22.4945C10.25 21.4478 10.9 20.75 11.875 20.75C12.85 20.75 14.3125 22.3201 14.3125 23.3668C14.3125 24.4135 12.85 24.2391 11.875 24.2391ZM28.125 24.2391C27.15 24.2391 25.6875 24.4135 25.6875 23.3668C25.6875 22.3201 27.15 20.75 28.125 20.75C29.1 20.75 29.75 21.4478 29.75 22.4945C29.75 23.5412 29.1 24.2391 28.125 24.2391V24.2391Z" fill="#111111"/>
</svg>
