<svg width="40" height="40" viewBox="0 0 40 40" fill="none" xmlns="http://www.w3.org/2000/svg">
<rect width="40" height="40" rx="8" fill="#686868"/>
<path fill-rule="evenodd" clip-rule="evenodd" d="M20.2389 15.3628C18.6759 15.3628 17.4089 16.599 17.4089 18.1239C17.4089 19.6488 18.6759 20.885 20.2389 20.885C21.802 20.885 23.069 19.6488 23.069 18.1239C23.069 16.599 21.802 15.3628 20.2389 15.3628ZM15.5221 18.1239C15.5221 15.5824 17.6339 13.5221 20.2389 13.5221C22.844 13.5221 24.9558 15.5824 24.9558 18.1239C24.9558 20.6654 22.844 22.7257 20.2389 22.7257C17.6339 22.7257 15.5221 20.6654 15.5221 18.1239Z" fill="#F2F0EB"/>
<path fill-rule="evenodd" clip-rule="evenodd" d="M20.2389 9.85714C18.0171 9.85714 15.8863 10.7376 14.3153 12.3049C12.7442 13.8722 11.8616 15.9978 11.8616 18.2143C11.8616 22.0585 14.0135 25.559 16.2873 28.1675C17.4128 29.4587 18.5407 30.4997 19.3874 31.2177C19.7222 31.5017 20.012 31.7342 20.2389 31.9107C20.4658 31.7342 20.7556 31.5017 21.0905 31.2177C21.9372 30.4997 23.0651 29.4587 24.1906 28.1675C26.4644 25.559 28.6162 22.0585 28.6162 18.2143C28.6162 15.9978 27.7336 13.8722 26.1626 12.3049C24.5915 10.7376 22.4607 9.85714 20.2389 9.85714ZM20.2389 33.0714C19.7052 33.8321 19.7049 33.832 19.7046 33.8318L19.7038 33.8312L19.7016 33.8297L19.6948 33.8249L19.688 33.8201C19.6833 33.8168 19.6777 33.8127 19.6711 33.8081C19.651 33.7937 19.6223 33.7731 19.5856 33.7464C19.5122 33.6929 19.4067 33.615 19.2738 33.5136C19.0079 33.3109 18.6316 33.0143 18.1817 32.6327C17.2831 31.8708 16.084 30.7645 14.8825 29.3861C12.5022 26.6553 10 22.7272 10 18.2143C10 15.5053 11.0787 12.9072 12.9989 10.9917C14.9191 9.07614 17.5234 8 20.2389 8C22.9545 8 25.5588 9.07614 27.479 10.9917C29.3991 12.9072 30.4779 15.5053 30.4779 18.2143C30.4779 22.7272 27.9757 26.6553 25.5954 29.3861C24.3939 30.7645 23.1947 31.8708 22.2962 32.6327C21.8462 33.0143 21.47 33.3109 21.2041 33.5136C21.0712 33.615 20.9657 33.6929 20.8923 33.7464C20.8556 33.7731 20.8269 33.7937 20.8068 33.8081C20.7967 33.8152 20.7888 33.8208 20.7831 33.8249L20.7762 33.8297L20.774 33.8312L20.7733 33.8318C20.773 33.832 20.7727 33.8321 20.2389 33.0714ZM20.2389 33.0714L20.7727 33.8321C20.4522 34.056 20.0256 34.056 19.7052 33.8321L20.2389 33.0714Z" fill="#F2F0EB"/>
</svg>
