<svg width="40" height="40" viewBox="0 0 40 40" fill="none" xmlns="http://www.w3.org/2000/svg">
<circle cx="20" cy="20" r="20" fill="#959F95"/>
<path d="M13.5898 25.1172C13.0977 25.1172 12.6562 25.0391 12.2656 24.8828C11.875 24.7227 11.543 24.502 11.2695 24.2207C11 23.9395 10.793 23.6133 10.6484 23.2422C10.5039 22.8672 10.4316 22.4688 10.4316 22.0469V21.8125C10.4316 21.332 10.5 20.8926 10.6367 20.4941C10.7734 20.0957 10.9688 19.75 11.2227 19.457C11.4805 19.1641 11.793 18.9395 12.1602 18.7832C12.5273 18.623 12.9414 18.543 13.4023 18.543C13.8516 18.543 14.25 18.6172 14.5977 18.7656C14.9453 18.9141 15.2363 19.125 15.4707 19.3984C15.709 19.6719 15.8887 20 16.0098 20.3828C16.1309 20.7617 16.1914 21.1836 16.1914 21.6484V22.3516H11.1523V21.2266H14.5332V21.0977C14.5332 20.8633 14.4902 20.6543 14.4043 20.4707C14.3223 20.2832 14.1973 20.1348 14.0293 20.0254C13.8613 19.916 13.6465 19.8613 13.3848 19.8613C13.1621 19.8613 12.9707 19.9102 12.8105 20.0078C12.6504 20.1055 12.5195 20.2422 12.418 20.418C12.3203 20.5938 12.2461 20.8008 12.1953 21.0391C12.1484 21.2734 12.125 21.5312 12.125 21.8125V22.0469C12.125 22.3008 12.1602 22.5352 12.2305 22.75C12.3047 22.9648 12.4082 23.1504 12.541 23.3066C12.6777 23.4629 12.8418 23.584 13.0332 23.6699C13.2285 23.7559 13.4492 23.7988 13.6953 23.7988C14 23.7988 14.2832 23.7402 14.5449 23.623C14.8105 23.502 15.0391 23.3203 15.2305 23.0781L16.0508 23.9688C15.918 24.1602 15.7363 24.3438 15.5059 24.5195C15.2793 24.6953 15.0059 24.8398 14.6855 24.9531C14.3652 25.0625 14 25.1172 13.5898 25.1172ZM18.8047 20.0137V25H17.1172V18.6602H18.6992L18.8047 20.0137ZM18.5586 21.6074H18.1016C18.1016 21.1387 18.1621 20.7168 18.2832 20.3418C18.4043 19.9629 18.5742 19.6406 18.793 19.375C19.0117 19.1055 19.2715 18.9004 19.5723 18.7598C19.877 18.6152 20.2168 18.543 20.5918 18.543C20.8887 18.543 21.1602 18.5859 21.4062 18.6719C21.6523 18.7578 21.8633 18.8945 22.0391 19.082C22.2188 19.2695 22.3555 19.5176 22.4492 19.8262C22.5469 20.1348 22.5957 20.5117 22.5957 20.957V25H20.8965V20.9512C20.8965 20.6699 20.8574 20.4512 20.7793 20.2949C20.7012 20.1387 20.5859 20.0293 20.4336 19.9668C20.2852 19.9004 20.1016 19.8672 19.8828 19.8672C19.6562 19.8672 19.459 19.9121 19.291 20.002C19.127 20.0918 18.9902 20.2168 18.8809 20.377C18.7754 20.5332 18.6953 20.7168 18.6406 20.9277C18.5859 21.1387 18.5586 21.3652 18.5586 21.6074ZM27.623 23.6172V16H29.3223V25H27.793L27.623 23.6172ZM23.6152 21.9062V21.7832C23.6152 21.2988 23.6699 20.8594 23.7793 20.4648C23.8887 20.0664 24.0488 19.7246 24.2598 19.4395C24.4707 19.1543 24.7305 18.9336 25.0391 18.7773C25.3477 18.6211 25.6992 18.543 26.0938 18.543C26.4648 18.543 26.7891 18.6211 27.0664 18.7773C27.3477 18.9336 27.5859 19.1562 27.7812 19.4453C27.9805 19.7305 28.1406 20.0684 28.2617 20.459C28.3828 20.8457 28.4707 21.2695 28.5254 21.7305V22C28.4707 22.4414 28.3828 22.8516 28.2617 23.2305C28.1406 23.6094 27.9805 23.9414 27.7812 24.2266C27.5859 24.5078 27.3477 24.7266 27.0664 24.8828C26.7852 25.0391 26.457 25.1172 26.082 25.1172C25.6875 25.1172 25.3359 25.0371 25.0273 24.877C24.7227 24.7168 24.4648 24.4922 24.2539 24.2031C24.0469 23.9141 23.8887 23.5742 23.7793 23.1836C23.6699 22.793 23.6152 22.3672 23.6152 21.9062ZM25.3027 21.7832V21.9062C25.3027 22.168 25.3223 22.4121 25.3613 22.6387C25.4043 22.8652 25.4727 23.0664 25.5664 23.2422C25.6641 23.4141 25.7891 23.5488 25.9414 23.6465C26.0977 23.7402 26.2871 23.7871 26.5098 23.7871C26.7988 23.7871 27.0371 23.7227 27.2246 23.5938C27.4121 23.4609 27.5547 23.2793 27.6523 23.0488C27.7539 22.8184 27.8125 22.5527 27.8281 22.252V21.4844C27.8164 21.2383 27.7812 21.0176 27.7227 20.8223C27.668 20.623 27.5859 20.4531 27.4766 20.3125C27.3711 20.1719 27.2383 20.0625 27.0781 19.9844C26.9219 19.9062 26.7363 19.8672 26.5215 19.8672C26.3027 19.8672 26.1152 19.918 25.959 20.0195C25.8027 20.1172 25.6758 20.252 25.5781 20.4238C25.4844 20.5957 25.4141 20.7988 25.3672 21.0332C25.3242 21.2637 25.3027 21.5137 25.3027 21.7832Z" fill="#111111"/>
</svg>
