<svg width="40" height="40" viewBox="0 0 40 40" fill="none" xmlns="http://www.w3.org/2000/svg">
<circle cx="20" cy="20" r="20" fill="#F9674A"/>
<path d="M32 11.875V24.875C32 27.5062 28.8363 29.75 25.3248 29.75L28.5581 32.2749C28.8634 32.5134 28.6918 33 28.3036 33H12.6964C12.3074 33 12.1372 32.5128 12.4419 32.2749L15.6752 29.75C12.1738 29.75 9 27.5133 9 24.875V11.875C9 9.18263 12.2857 7 15.5714 7H25.4286C28.7656 7 32 9.18263 32 11.875ZM29.5357 18.7812V13.0938C29.5357 12.4206 28.9841 11.875 28.3036 11.875H12.6964C12.0159 11.875 11.4643 12.4206 11.4643 13.0938V18.7812C11.4643 19.4544 12.0159 20 12.6964 20H28.3036C28.9841 20 29.5357 19.4544 29.5357 18.7812ZM20.5 22.0312C18.9122 22.0312 17.625 23.3044 17.625 24.875C17.625 26.4456 18.9122 27.7188 20.5 27.7188C22.0878 27.7188 23.375 26.4456 23.375 24.875C23.375 23.3044 22.0878 22.0312 20.5 22.0312Z" fill="#111111"/>
</svg>
