<svg width="40" height="40" viewBox="0 0 40 40" fill="none" xmlns="http://www.w3.org/2000/svg">
<circle cx="20" cy="20" r="20" fill="#959F95"/>
<path d="M11.3809 23.248C11.3809 23.127 11.3457 23.0176 11.2754 22.9199C11.2051 22.8223 11.0742 22.7324 10.8828 22.6504C10.6953 22.5645 10.4238 22.4863 10.0684 22.416C9.74805 22.3457 9.44922 22.2578 9.17188 22.1523C8.89844 22.043 8.66016 21.9121 8.45703 21.7598C8.25781 21.6074 8.10156 21.4277 7.98828 21.2207C7.875 21.0098 7.81836 20.7695 7.81836 20.5C7.81836 20.2344 7.875 19.9844 7.98828 19.75C8.10547 19.5156 8.27148 19.3086 8.48633 19.1289C8.70508 18.9453 8.9707 18.8027 9.2832 18.7012C9.59961 18.5957 9.95508 18.543 10.3496 18.543C10.9004 18.543 11.373 18.6309 11.7676 18.8066C12.166 18.9824 12.4707 19.2246 12.6816 19.5332C12.8965 19.8379 13.0039 20.1855 13.0039 20.5762H11.3164C11.3164 20.4121 11.2812 20.2656 11.2109 20.1367C11.1445 20.0039 11.0391 19.9004 10.8945 19.8262C10.7539 19.748 10.5703 19.709 10.3438 19.709C10.1562 19.709 9.99414 19.7422 9.85742 19.8086C9.7207 19.8711 9.61523 19.957 9.54102 20.0664C9.4707 20.1719 9.43555 20.2891 9.43555 20.418C9.43555 20.5156 9.45508 20.6035 9.49414 20.6816C9.53711 20.7559 9.60547 20.8242 9.69922 20.8867C9.79297 20.9492 9.91406 21.0078 10.0625 21.0625C10.2148 21.1133 10.4023 21.1602 10.625 21.2031C11.082 21.2969 11.4902 21.4199 11.8496 21.5723C12.209 21.7207 12.4941 21.9238 12.7051 22.1816C12.916 22.4355 13.0215 22.7695 13.0215 23.1836C13.0215 23.4648 12.959 23.7227 12.834 23.957C12.709 24.1914 12.5293 24.3965 12.2949 24.5723C12.0605 24.7441 11.7793 24.8789 11.4512 24.9766C11.127 25.0703 10.7617 25.1172 10.3555 25.1172C9.76562 25.1172 9.26562 25.0117 8.85547 24.8008C8.44922 24.5898 8.14062 24.3223 7.92969 23.998C7.72266 23.6699 7.61914 23.334 7.61914 22.9902H9.21875C9.22656 23.2207 9.28516 23.4062 9.39453 23.5469C9.50781 23.6875 9.65039 23.7891 9.82227 23.8516C9.99805 23.9141 10.1875 23.9453 10.3906 23.9453C10.6094 23.9453 10.791 23.916 10.9355 23.8574C11.0801 23.7949 11.1895 23.7129 11.2637 23.6113C11.3418 23.5059 11.3809 23.3848 11.3809 23.248ZM17.2227 18.6602V19.8555H13.5312V18.6602H17.2227ZM14.4453 17.0957H16.1328V23.0898C16.1328 23.2734 16.1562 23.4141 16.2031 23.5117C16.2539 23.6094 16.3281 23.6777 16.4258 23.7168C16.5234 23.752 16.6465 23.7695 16.7949 23.7695C16.9004 23.7695 16.9941 23.7656 17.0762 23.7578C17.1621 23.7461 17.2344 23.7344 17.293 23.7227L17.2988 24.9648C17.1543 25.0117 16.998 25.0488 16.8301 25.0762C16.6621 25.1035 16.4766 25.1172 16.2734 25.1172C15.9023 25.1172 15.5781 25.0566 15.3008 24.9355C15.0273 24.8105 14.8164 24.6113 14.668 24.3379C14.5195 24.0645 14.4453 23.7051 14.4453 23.2598V17.0957ZM21.6055 23.5703V20.7461C21.6055 20.543 21.5723 20.3691 21.5059 20.2246C21.4395 20.0762 21.3359 19.9609 21.1953 19.8789C21.0586 19.7969 20.8809 19.7559 20.6621 19.7559C20.4746 19.7559 20.3125 19.7891 20.1758 19.8555C20.0391 19.918 19.9336 20.0098 19.8594 20.1309C19.7852 20.248 19.748 20.3867 19.748 20.5469H18.0605C18.0605 20.2773 18.123 20.0215 18.248 19.7793C18.373 19.5371 18.5547 19.3242 18.793 19.1406C19.0312 18.9531 19.3145 18.8066 19.6426 18.7012C19.9746 18.5957 20.3457 18.543 20.7559 18.543C21.248 18.543 21.6855 18.625 22.0684 18.7891C22.4512 18.9531 22.752 19.1992 22.9707 19.5273C23.1934 19.8555 23.3047 20.2656 23.3047 20.7578V23.4707C23.3047 23.8184 23.3262 24.1035 23.3691 24.3262C23.4121 24.5449 23.4746 24.7363 23.5566 24.9004V25H21.8516C21.7695 24.8281 21.707 24.6133 21.6641 24.3555C21.625 24.0938 21.6055 23.832 21.6055 23.5703ZM21.8281 21.1387L21.8398 22.0938H20.8965C20.6738 22.0938 20.4805 22.1191 20.3164 22.1699C20.1523 22.2207 20.0176 22.293 19.9121 22.3867C19.8066 22.4766 19.7285 22.582 19.6777 22.7031C19.6309 22.8242 19.6074 22.957 19.6074 23.1016C19.6074 23.2461 19.6406 23.377 19.707 23.4941C19.7734 23.6074 19.8691 23.6973 19.9941 23.7637C20.1191 23.8262 20.2656 23.8574 20.4336 23.8574C20.6875 23.8574 20.9082 23.8066 21.0957 23.7051C21.2832 23.6035 21.4277 23.4785 21.5293 23.3301C21.6348 23.1816 21.6895 23.041 21.6934 22.9082L22.1387 23.623C22.0762 23.7832 21.9902 23.9492 21.8809 24.1211C21.7754 24.293 21.6406 24.4551 21.4766 24.6074C21.3125 24.7559 21.1152 24.8789 20.8848 24.9766C20.6543 25.0703 20.3809 25.1172 20.0645 25.1172C19.6621 25.1172 19.2969 25.0371 18.9688 24.877C18.6445 24.7129 18.3867 24.4883 18.1953 24.2031C18.0078 23.9141 17.9141 23.5859 17.9141 23.2188C17.9141 22.8867 17.9766 22.5918 18.1016 22.334C18.2266 22.0762 18.4102 21.8594 18.6523 21.6836C18.8984 21.5039 19.2051 21.3691 19.5723 21.2793C19.9395 21.1855 20.3652 21.1387 20.8496 21.1387H21.8281ZM26.293 20.043V25H24.6055V18.6602H26.1934L26.293 20.043ZM28.2031 18.6191L28.1738 20.1836C28.0918 20.1719 27.9922 20.1621 27.875 20.1543C27.7617 20.1426 27.6582 20.1367 27.5645 20.1367C27.3262 20.1367 27.1191 20.168 26.9434 20.2305C26.7715 20.2891 26.627 20.377 26.5098 20.4941C26.3965 20.6113 26.3105 20.7539 26.252 20.9219C26.1973 21.0898 26.166 21.2812 26.1582 21.4961L25.8184 21.3906C25.8184 20.9805 25.8594 20.6035 25.9414 20.2598C26.0234 19.9121 26.1426 19.6094 26.2988 19.3516C26.459 19.0938 26.6543 18.8945 26.8848 18.7539C27.1152 18.6133 27.3789 18.543 27.6758 18.543C27.7695 18.543 27.8652 18.5508 27.9629 18.5664C28.0605 18.5781 28.1406 18.5957 28.2031 18.6191ZM32.3984 18.6602V19.8555H28.707V18.6602H32.3984ZM29.6211 17.0957H31.3086V23.0898C31.3086 23.2734 31.332 23.4141 31.3789 23.5117C31.4297 23.6094 31.5039 23.6777 31.6016 23.7168C31.6992 23.752 31.8223 23.7695 31.9707 23.7695C32.0762 23.7695 32.1699 23.7656 32.252 23.7578C32.3379 23.7461 32.4102 23.7344 32.4688 23.7227L32.4746 24.9648C32.3301 25.0117 32.1738 25.0488 32.0059 25.0762C31.8379 25.1035 31.6523 25.1172 31.4492 25.1172C31.0781 25.1172 30.7539 25.0566 30.4766 24.9355C30.2031 24.8105 29.9922 24.6113 29.8438 24.3379C29.6953 24.0645 29.6211 23.7051 29.6211 23.2598V17.0957Z" fill="#111111"/>
</svg>
