<svg width="40" height="40" viewBox="0 0 40 40" fill="none" xmlns="http://www.w3.org/2000/svg">
<rect width="40" height="40" rx="8" fill="#686868"/>
<path d="M8.07218 17.622C8.06084 17.9053 8.05518 18.2 8.05518 18.506C8.05518 18.812 8.07784 19.1123 8.12318 19.407C7.98718 19.4977 7.81718 19.5657 7.61318 19.611C7.42051 19.6563 7.21651 19.679 7.00118 19.679C6.97851 19.373 6.89351 19.0897 6.74618 18.829C6.61018 18.5683 6.41751 18.3587 6.16818 18.2C5.91884 18.0413 5.61851 17.962 5.26718 17.962C4.97251 17.962 4.73451 18.0357 4.55318 18.183C4.38318 18.3303 4.29818 18.523 4.29818 18.761C4.29818 18.931 4.33784 19.0897 4.41718 19.237C4.49651 19.373 4.67218 19.5203 4.94418 19.679C5.21618 19.8377 5.64118 20.0303 6.21918 20.257C6.84251 20.495 7.33551 20.733 7.69818 20.971C8.06084 21.1977 8.31584 21.4527 8.46318 21.736C8.61051 22.0193 8.68418 22.3537 8.68418 22.739C8.68418 23.2377 8.54251 23.6683 8.25918 24.031C7.97584 24.3937 7.57918 24.6713 7.06918 24.864C6.55918 25.0567 5.96984 25.153 5.30118 25.153C4.60984 25.153 4.04318 25.102 3.60118 25C3.17051 24.898 2.75118 24.745 2.34318 24.541C2.36584 24.3483 2.37718 24.1217 2.37718 23.861C2.38851 23.6003 2.39418 23.3453 2.39418 23.096C2.39418 22.8353 2.38284 22.6143 2.36018 22.433C2.48484 22.3537 2.65484 22.297 2.87018 22.263C3.09684 22.2177 3.31218 22.195 3.51618 22.195C3.59551 22.8523 3.79384 23.3453 4.11118 23.674C4.42851 24.0027 4.84218 24.167 5.35218 24.167C5.74884 24.167 6.05484 24.082 6.27018 23.912C6.49684 23.742 6.61018 23.5153 6.61018 23.232C6.61018 23.0507 6.56484 22.892 6.47418 22.756C6.38351 22.6087 6.21351 22.467 5.96418 22.331C5.72618 22.1837 5.36918 22.0193 4.89318 21.838C4.33784 21.6113 3.87318 21.3903 3.49918 21.175C3.13651 20.9597 2.86451 20.699 2.68318 20.393C2.50184 20.087 2.41118 19.7017 2.41118 19.237C2.41118 18.863 2.49618 18.54 2.66618 18.268C2.84751 17.996 3.08551 17.7693 3.38018 17.588C3.67484 17.4067 4.00351 17.2763 4.36618 17.197C4.72884 17.1063 5.09151 17.061 5.45418 17.061C6.02084 17.061 6.50818 17.112 6.91618 17.214C7.32418 17.3047 7.70951 17.4407 8.07218 17.622ZM12.9237 25.153C12.1757 25.153 11.6147 24.9603 11.2407 24.575C10.878 24.1897 10.6967 23.555 10.6967 22.671V18.54C10.5267 18.472 10.3454 18.421 10.1527 18.387C9.97135 18.353 9.73902 18.3303 9.45568 18.319C9.45568 18.1377 9.46702 17.979 9.48968 17.843C9.52368 17.6957 9.57468 17.5427 9.64268 17.384H10.6967V15.225C11.014 15.1683 11.3257 15.072 11.6317 14.936C11.949 14.7887 12.2097 14.63 12.4137 14.46C12.561 14.5167 12.6574 14.6017 12.7027 14.715C12.748 14.8283 12.7707 15.072 12.7707 15.446V17.384H14.9127C14.9127 17.554 14.9014 17.7183 14.8787 17.877C14.856 18.0357 14.8164 18.1887 14.7597 18.336C14.363 18.336 14.0004 18.3587 13.6717 18.404C13.3544 18.4493 13.054 18.506 12.7707 18.574V22.365C12.7707 22.7843 12.8047 23.1187 12.8727 23.368C12.952 23.6173 13.0597 23.793 13.1957 23.895C13.3317 23.997 13.5017 24.048 13.7057 24.048C13.9097 24.048 14.0967 24.0197 14.2667 23.963C14.448 23.9063 14.618 23.827 14.7767 23.725C14.9354 23.9177 15.0204 24.1613 15.0317 24.456C14.8277 24.6487 14.5217 24.813 14.1137 24.949C13.717 25.085 13.3204 25.153 12.9237 25.153ZM21.4783 25.153C21.3083 25.085 21.1836 24.9773 21.1043 24.83C21.0249 24.6713 20.9853 24.4503 20.9853 24.167C20.9853 24.0423 20.9966 23.895 21.0193 23.725C21.0419 23.555 21.0759 23.3963 21.1213 23.249L21.1723 23.215C21.1043 23.4643 21.0023 23.708 20.8663 23.946C20.7303 24.1727 20.5659 24.3653 20.3733 24.524C20.1579 24.7053 19.8916 24.8527 19.5743 24.966C19.2569 25.068 18.8886 25.119 18.4693 25.119C17.7213 25.119 17.1433 24.9547 16.7353 24.626C16.3386 24.2973 16.1403 23.8383 16.1403 23.249C16.1403 22.8183 16.2423 22.45 16.4463 22.144C16.6503 21.8267 16.9223 21.5603 17.2623 21.345C17.6023 21.1297 17.9706 20.9597 18.3673 20.835C18.7753 20.699 19.1833 20.597 19.5913 20.529C20.0106 20.4497 20.3959 20.3817 20.7473 20.325C20.7473 19.9397 20.7359 19.6337 20.7133 19.407C20.7019 19.169 20.6679 18.9763 20.6113 18.829C20.5659 18.6703 20.4866 18.5343 20.3733 18.421C20.2486 18.2623 20.1013 18.149 19.9313 18.081C19.7613 18.0017 19.5799 17.962 19.3873 17.962C19.0473 17.962 18.7753 18.064 18.5713 18.268C18.3786 18.472 18.2369 18.727 18.1463 19.033C18.0556 19.3277 17.9989 19.611 17.9763 19.883C17.7609 19.883 17.5456 19.8773 17.3303 19.866C17.1149 19.8433 16.9336 19.8037 16.7863 19.747C16.8089 19.441 16.8146 19.1123 16.8033 18.761C16.7919 18.4097 16.7523 18.081 16.6843 17.775C17.1603 17.5483 17.6873 17.3727 18.2653 17.248C18.8433 17.1233 19.3816 17.061 19.8803 17.061C20.4469 17.061 20.9059 17.129 21.2573 17.265C21.6199 17.401 21.8976 17.571 22.0903 17.775C22.3509 18.0357 22.5379 18.387 22.6513 18.829C22.7646 19.2597 22.8213 19.866 22.8213 20.648V22.28C22.8213 22.62 22.8439 22.892 22.8893 23.096C22.9459 23.2887 23.0423 23.4247 23.1783 23.504C23.3256 23.5833 23.5466 23.6287 23.8413 23.64C23.8639 23.7987 23.8639 23.963 23.8413 24.133C23.8299 24.303 23.7903 24.4617 23.7223 24.609C23.3596 24.6203 22.9743 24.677 22.5663 24.779C22.1696 24.8697 21.8069 24.9943 21.4783 25.153ZM19.1663 23.895C19.4043 23.895 19.6423 23.8157 19.8803 23.657C20.1296 23.4983 20.3336 23.2603 20.4923 22.943C20.6623 22.6143 20.7473 22.195 20.7473 21.685V21.158C20.4299 21.2033 20.1183 21.2657 19.8123 21.345C19.5176 21.413 19.2513 21.5093 19.0133 21.634C18.7866 21.7473 18.6053 21.9003 18.4693 22.093C18.3333 22.2857 18.2653 22.535 18.2653 22.841C18.2653 23.2037 18.3559 23.47 18.5373 23.64C18.7186 23.81 18.9283 23.895 19.1663 23.895ZM28.3351 22.229C28.3351 22.7163 28.3861 23.096 28.4881 23.368C28.5901 23.6287 28.7601 23.8157 28.9981 23.929C29.2474 24.031 29.5648 24.099 29.9501 24.133C29.9954 24.2463 30.0238 24.3823 30.0351 24.541C30.0464 24.6997 30.0521 24.8697 30.0521 25.051C29.8708 25.0397 29.6441 25.0283 29.3721 25.017C29.1114 25.017 28.8281 25.0113 28.5221 25C28.2274 25 27.9271 25 27.6211 25C27.1564 25 26.6691 25 26.1591 25C25.6604 25.0113 25.2694 25.0283 24.9861 25.051C24.9861 24.847 24.9918 24.6713 25.0031 24.524C25.0258 24.3767 25.0541 24.2463 25.0881 24.133C25.3941 24.1103 25.6321 24.0537 25.8021 23.963C25.9721 23.8723 26.0854 23.7137 26.1421 23.487C26.2101 23.2603 26.2441 22.9373 26.2441 22.518V21.141H28.3351V22.229ZM28.3351 20.002V21.413H26.2441V19.543L28.3351 17.911C28.3351 18.2397 28.3011 18.5513 28.2331 18.846C28.1651 19.1407 28.0971 19.4693 28.0291 19.832L28.3351 20.002ZM27.9611 19.917C28.0631 19.6337 28.1538 19.373 28.2331 19.135C28.3238 18.897 28.4088 18.71 28.4881 18.574C28.7374 18.1773 29.0378 17.8487 29.3891 17.588C29.7404 17.3273 30.1371 17.197 30.5791 17.197C31.0211 17.197 31.4234 17.333 31.7861 17.605C31.7521 17.809 31.7238 18.047 31.7011 18.319C31.6784 18.591 31.6614 18.863 31.6501 19.135C31.6388 19.407 31.6388 19.6563 31.6501 19.883C31.5141 19.9397 31.3271 19.985 31.0891 20.019C30.8511 20.053 30.6244 20.07 30.4091 20.07C30.3978 19.5827 30.3241 19.254 30.1881 19.084C30.0521 18.914 29.8708 18.829 29.6441 18.829C29.4628 18.829 29.2701 18.931 29.0661 19.135C28.8621 19.339 28.6864 19.611 28.5391 19.951C28.4031 20.2797 28.3351 20.648 28.3351 21.056L27.9611 19.917ZM26.2441 21.413V19.781C26.2441 19.475 26.2158 19.2313 26.1591 19.05C26.1138 18.8687 26.0004 18.7327 25.8191 18.642C25.6491 18.5513 25.3771 18.4947 25.0031 18.472C25.0031 18.3133 25.0144 18.166 25.0371 18.03C25.0598 17.8827 25.1051 17.7523 25.1731 17.639C25.6831 17.6163 26.1931 17.5483 26.7031 17.435C27.2244 17.3217 27.6211 17.197 27.8931 17.061C28.0178 17.1063 28.1198 17.197 28.1991 17.333C28.2898 17.4577 28.3351 17.6503 28.3351 17.911L26.2441 21.413ZM35.8172 25.153C35.0692 25.153 34.5082 24.9603 34.1342 24.575C33.7716 24.1897 33.5902 23.555 33.5902 22.671V18.54C33.4202 18.472 33.2389 18.421 33.0462 18.387C32.8649 18.353 32.6326 18.3303 32.3492 18.319C32.3492 18.1377 32.3606 17.979 32.3832 17.843C32.4172 17.6957 32.4682 17.5427 32.5362 17.384H33.5902V15.225C33.9076 15.1683 34.2192 15.072 34.5252 14.936C34.8426 14.7887 35.1032 14.63 35.3072 14.46C35.4546 14.5167 35.5509 14.6017 35.5962 14.715C35.6416 14.8283 35.6642 15.072 35.6642 15.446V17.384H37.8062C37.8062 17.554 37.7949 17.7183 37.7722 17.877C37.7496 18.0357 37.7099 18.1887 37.6532 18.336C37.2566 18.336 36.8939 18.3587 36.5652 18.404C36.2479 18.4493 35.9476 18.506 35.6642 18.574V22.365C35.6642 22.7843 35.6982 23.1187 35.7662 23.368C35.8456 23.6173 35.9532 23.793 36.0892 23.895C36.2252 23.997 36.3952 24.048 36.5992 24.048C36.8032 24.048 36.9902 24.0197 37.1602 23.963C37.3416 23.9063 37.5116 23.827 37.6702 23.725C37.8289 23.9177 37.9139 24.1613 37.9252 24.456C37.7212 24.6487 37.4152 24.813 37.0072 24.949C36.6106 25.085 36.2139 25.153 35.8172 25.153Z" fill="#F2F0EB"/>
</svg>
