<svg width="40" height="40" viewBox="0 0 40 40" fill="none" xmlns="http://www.w3.org/2000/svg">
<rect width="40" height="40" rx="8" fill="#686868"/>
<path fill-rule="evenodd" clip-rule="evenodd" d="M22.1034 10.5862C21.7468 10.5862 21.4047 10.7279 21.1525 10.9801C20.9003 11.2323 20.7586 11.5744 20.7586 11.931C20.7586 12.4262 20.3572 12.8276 19.8621 12.8276C19.3669 12.8276 18.9655 12.4262 18.9655 11.931C18.9655 11.0988 19.2961 10.3007 19.8846 9.71218C20.4731 9.12371 21.2712 8.79311 22.1034 8.79311C22.9357 8.79311 23.7338 9.12371 24.3223 9.71218C24.9108 10.3007 25.2414 11.0988 25.2414 11.931V18.6552C25.2414 19.1503 24.84 19.5517 24.3448 19.5517C23.8497 19.5517 23.4483 19.1503 23.4483 18.6552V11.931C23.4483 11.5744 23.3066 11.2323 23.0544 10.9801C22.8022 10.7279 22.4601 10.5862 22.1034 10.5862Z" fill="#F2F0EB"/>
<path fill-rule="evenodd" clip-rule="evenodd" d="M17.6207 8.7931C17.264 8.7931 16.922 8.93479 16.6698 9.18699C16.4175 9.4392 16.2759 9.78126 16.2759 10.1379V13.7241C16.2759 14.2193 15.8745 14.6207 15.3793 14.6207C14.8842 14.6207 14.4828 14.2193 14.4828 13.7241V10.1379C14.4828 9.3057 14.8134 8.50755 15.4018 7.91908C15.9903 7.3306 16.7885 7 17.6207 7C18.4529 7 19.2511 7.3306 19.8395 7.91908C20.428 8.50755 20.7586 9.3057 20.7586 10.1379V17.7586C20.7586 18.2538 20.3572 18.6552 19.8621 18.6552C19.3669 18.6552 18.9655 18.2538 18.9655 17.7586V10.1379C18.9655 9.78126 18.8238 9.4392 18.5716 9.18699C18.3194 8.93479 17.9774 8.7931 17.6207 8.7931Z" fill="#F2F0EB"/>
<path fill-rule="evenodd" clip-rule="evenodd" d="M13.1379 12.3793C12.7813 12.3793 12.4392 12.521 12.187 12.7732C11.9348 13.0254 11.7931 13.3675 11.7931 13.7241V23.1379C11.7931 25.278 12.6432 27.3303 14.1564 28.8436C15.6697 30.3568 17.722 31.2069 19.8621 31.2069C22.0021 31.2069 24.0545 30.3568 25.5677 28.8436C27.0809 27.3303 27.931 25.278 27.931 23.1379V18.6552C27.931 18.2985 27.7893 17.9564 27.5371 17.7042C27.2849 17.452 26.9429 17.3103 26.5862 17.3103C26.2295 17.3103 25.8875 17.452 25.6353 17.7042C25.3831 17.9564 25.2414 18.2985 25.2414 18.6552V20.8966C25.2414 21.3917 24.84 21.7931 24.3448 21.7931C23.3937 21.7931 22.4815 22.1709 21.809 22.8435C21.1365 23.516 20.7586 24.4282 20.7586 25.3793C20.7586 25.8745 20.3572 26.2759 19.8621 26.2759C19.3669 26.2759 18.9655 25.8745 18.9655 25.3793C18.9655 23.9526 19.5323 22.5844 20.5411 21.5756C21.336 20.7806 22.3542 20.2602 23.4483 20.0752V18.6552C23.4483 17.8229 23.7789 17.0248 24.3674 16.4363C24.9558 15.8478 25.754 15.5172 26.5862 15.5172C27.4184 15.5172 28.2166 15.8478 28.8051 16.4363C29.3935 17.0248 29.7241 17.8229 29.7241 18.6552V23.1379C29.7241 25.7535 28.6851 28.262 26.8356 30.1115C24.9861 31.961 22.4777 33 19.8621 33C17.2465 33 14.738 31.961 12.8885 30.1115C11.039 28.262 10 25.7535 10 23.1379V13.7241C10 12.8919 10.3306 12.0938 10.9191 11.5053C11.5076 10.9168 12.3057 10.5862 13.1379 10.5862C13.9702 10.5862 14.7683 10.9168 15.3568 11.5053C15.9453 12.0938 16.2759 12.8919 16.2759 13.7241V18.6552C16.2759 19.1503 15.8745 19.5517 15.3793 19.5517C14.8842 19.5517 14.4828 19.1503 14.4828 18.6552V13.7241C14.4828 13.3675 14.3411 13.0254 14.0889 12.7732C13.8367 12.521 13.4946 12.3793 13.1379 12.3793Z" fill="#F2F0EB"/>
</svg>
