<svg width="40" height="40" viewBox="0 0 40 40" fill="none" xmlns="http://www.w3.org/2000/svg">
<circle cx="20" cy="20" r="20" fill="#F2F0EB"/>
<path d="M19.8372 7C21.6182 7 23.062 8.45509 23.062 10.25C23.062 12.0449 21.6182 13.5 19.8372 13.5C18.0562 13.5 16.6124 12.0449 16.6124 10.25C16.6124 8.45509 18.0562 7 19.8372 7ZM22.2558 14.3125H21.6834C20.5391 14.8428 19.1847 14.8657 17.991 14.3125H17.4186C16.0828 14.3125 15 15.4038 15 16.75V23.6562C15 24.3294 15.5414 24.875 16.2093 24.875H17.0155V31.7812C17.0155 32.4544 17.5569 33 18.2248 33H21.4496C22.1175 33 22.6589 32.4544 22.6589 31.7812V24.875H23.4651C24.133 24.875 24.6744 24.3294 24.6744 23.6562V16.75C24.6744 15.4038 23.5916 14.3125 22.2558 14.3125Z" fill="#111111"/>
</svg>
