<svg width="40" height="40" viewBox="0 0 40 40" fill="none" xmlns="http://www.w3.org/2000/svg">
<circle cx="20" cy="20" r="20" fill="#73B6E6"/>
<path d="M21.7005 10.8743C23.0639 10.8743 24.1701 9.78265 24.1701 8.43714C24.1701 7.09164 23.0639 6 21.7005 6C20.337 6 19.2308 7.09164 19.2308 8.43714C19.2308 9.78265 20.337 10.8743 21.7005 10.8743ZM26.5626 18.4447L25.3638 17.8455L24.8647 16.3528C24.1084 14.0883 21.9989 12.5041 19.6064 12.499C17.7542 12.494 16.7303 13.0119 14.8061 13.7785C13.6947 14.2203 12.7841 15.058 12.249 16.1243L11.9042 16.8148C11.5029 17.617 11.8271 18.5919 12.6348 18.993C13.4375 19.3941 14.415 19.0692 14.8215 18.267L15.1662 17.5764C15.3463 17.221 15.6447 16.9418 16.0152 16.7945L17.394 16.2462L16.612 19.3281C16.3445 20.3842 16.6326 21.5063 17.3786 22.3136L20.4605 25.6342C20.831 26.0353 21.0934 26.5177 21.2271 27.0407L22.1687 30.7624C22.3899 31.6306 23.2852 32.1637 24.165 31.9454C25.0448 31.7271 25.585 30.8436 25.3638 29.9754L24.2216 25.4565C24.0878 24.9336 23.8254 24.4461 23.455 24.0501L21.1139 21.5266L21.9989 18.0385L22.2819 18.8762C22.5546 19.6937 23.1411 20.369 23.9129 20.7549L25.1117 21.354C25.9143 21.7551 26.8919 21.4302 27.2983 20.6279C27.6945 19.8308 27.3704 18.8458 26.5626 18.4447V18.4447ZM14.7855 25.5885C14.6208 25.9998 14.3739 26.3705 14.0549 26.6802L11.4824 29.2239C10.8392 29.8586 10.8392 30.8893 11.4824 31.524C12.1255 32.1587 13.1648 32.1587 13.8079 31.524L16.8641 28.508C17.178 28.1983 17.4249 27.8277 17.5947 27.4164L18.2893 25.7002C15.4441 22.6386 16.2981 23.5779 15.8505 22.9737L14.7855 25.5885V25.5885Z" fill="#111111"/>
</svg>
